<?xml version="1.0" standalone="no"?>
<!DOCTYPE svg PUBLIC "-//W3C//DTD SVG 20010904//EN"
 "http://www.w3.org/TR/2001/REC-SVG-20010904/DTD/svg10.dtd">
<svg version="1.0" xmlns="http://www.w3.org/2000/svg"
 width="2560.000000pt" height="2560.000000pt" viewBox="0 0 2560.000000 2560.000000"
 preserveAspectRatio="xMidYMid meet">
<metadata>
Created by potrace 1.14, written by Peter Selinger 2001-2017
</metadata>
<g transform="translate(0.000000,2560.000000) scale(0.100000,-0.100000)"
fill="#000000" stroke="none">
<path d="M14960 22885 c-196 -34 -377 -118 -530 -245 -30 -25 -65 -58 -79 -73
-13 -16 -36 -41 -51 -55 -30 -31 -96 -127 -136 -197 -22 -41 -88 -190 -83
-190 0 0 -5 -20 -12 -45 -7 -25 -14 -54 -15 -65 -1 -11 -6 -36 -10 -55 -4 -19
-9 -4132 -10 -9140 -2 -9339 -3 -9103 31 -9280 7 -40 44 -142 56 -156 6 -8 8
-14 5 -14 -28 0 182 -312 231 -343 6 -4 29 -24 50 -45 21 -20 77 -63 125 -95
76 -51 108 -67 203 -107 41 -17 112 -39 160 -49 28 -6 61 -15 75 -18 14 -4
574 -8 1245 -10 1296 -2 1298 -2 1455 45 133 40 276 112 338 169 7 7 17 13 22
13 18 0 189 180 236 250 59 86 126 215 117 224 -4 3 -1 6 5 6 7 0 11 3 10 8
-1 4 6 32 15 62 10 30 19 62 21 70 2 8 6 26 10 40 3 14 8 41 9 60 2 19 5 40 8
45 8 15 3 18192 -5 18246 -13 93 -46 208 -76 274 -13 28 -23 56 -23 63 0 6 -4
12 -8 12 -4 0 -11 9 -14 20 -7 21 -50 89 -101 156 -25 33 -41 52 -82 97 -4 4
-22 20 -39 36 -18 15 -49 42 -68 59 -19 18 -39 32 -44 32 -5 0 -11 4 -13 8 -4
11 -92 63 -169 100 -60 28 -178 67 -269 88 -19 5 -593 9 -1275 10 -982 2
-1256 -1 -1315 -11z"/>
<path d="M8135 17228 c-156 -17 -249 -44 -388 -113 -104 -51 -185 -109 -271
-193 -61 -59 -165 -184 -156 -188 3 -1 -5 -13 -16 -26 -29 -31 -107 -196 -99
-208 3 -6 2 -10 -2 -10 -7 0 -29 -58 -37 -101 -2 -8 -6 -25 -10 -39 -4 -14 -8
-46 -10 -72 -2 -25 -5 -49 -8 -54 -8 -15 -2 -12516 6 -12564 11 -70 14 -85 16
-85 1 0 3 -9 5 -19 2 -11 7 -31 11 -45 4 -14 8 -29 9 -33 2 -5 4 -10 5 -13 1
-3 3 -8 5 -12 12 -45 94 -213 112 -231 7 -7 13 -17 13 -22 0 -5 6 -15 13 -22
7 -7 24 -29 37 -48 53 -77 273 -270 307 -270 4 0 14 -7 23 -15 25 -23 194 -89
275 -109 39 -9 81 -20 95 -23 14 -4 576 -8 1250 -10 1165 -2 1230 -1 1325 16
88 17 132 28 185 48 8 3 20 7 26 8 32 7 156 73 228 122 70 48 269 233 249 233
-4 0 3 9 14 20 12 10 24 28 28 40 3 11 11 20 16 20 5 0 9 7 9 15 0 8 5 15 12
15 6 0 8 3 5 6 -4 4 2 19 12 33 23 34 58 109 67 144 3 15 10 30 15 33 5 3 7
10 4 15 -4 5 -1 9 5 9 6 0 9 4 6 9 -3 5 1 31 9 57 8 27 15 64 15 82 0 17 3 32
8 32 4 0 7 44 7 98 0 53 3 114 6 134 3 21 4 40 1 43 -5 5 -6 196 -1 221 1 5 0
14 -1 19 -2 11 -2 207 1 221 1 5 0 14 -1 19 -2 11 -2 207 1 221 1 5 0 14 -1
19 -2 11 -2 207 1 221 1 5 0 14 -1 19 -2 11 -2 207 1 221 1 5 0 14 -1 19 -2
11 -2 207 1 221 1 5 0 14 -1 19 -2 11 -2 207 1 221 1 5 0 14 -1 19 -2 13 -2
247 0 260 1 6 2 15 0 20 -5 27 -1 455 4 463 4 6 2 14 -4 17 -8 5 -8 11 -1 19
6 7 8 16 4 20 -6 6 -8 193 -2 222 1 5 0 14 -1 19 -2 11 -2 207 1 221 1 5 0 14
-1 19 -2 13 -2 247 0 260 1 6 2 15 0 20 -2 14 -2 448 0 460 1 6 2 15 0 20 -2
14 -3 1448 0 1460 1 6 1 15 0 20 -2 11 -2 207 1 221 1 5 0 14 -1 19 -2 11 -2
207 1 221 1 5 0 14 -1 19 -2 11 -2 207 1 221 1 5 0 14 -1 19 -2 11 -2 207 1
221 1 5 0 14 -1 19 -2 11 -2 207 1 221 1 5 0 14 -1 19 -2 11 -2 207 1 221 1 5
0 14 -1 19 -2 11 -2 207 1 221 1 5 0 14 -1 19 -2 11 -2 207 1 221 1 5 0 14 -1
19 -2 11 -2 207 1 221 1 5 1 11 0 14 -3 7 -4 1493 -1 1505 1 6 1 15 0 20 -2
11 -2 207 1 221 1 5 0 14 -1 19 -2 11 -2 207 1 221 1 5 0 14 -1 19 -2 13 -2
247 0 260 1 6 2 15 0 20 -5 27 -1 455 4 463 4 6 2 14 -4 17 -8 5 -8 11 -1 19
6 7 8 16 4 20 -6 6 -8 193 -2 222 1 5 0 14 -1 19 -2 11 -2 207 1 221 1 5 0 14
-1 19 -2 13 -2 247 0 260 1 6 2 15 0 20 -5 27 -1 455 4 463 4 6 2 14 -4 17 -8
5 -8 11 -1 19 6 7 8 16 4 20 -6 6 -8 193 -2 222 1 5 0 14 -1 19 -2 11 -2 207
1 221 1 5 1 11 0 14 -1 3 -4 97 -5 210 -2 113 -4 205 -6 205 -1 0 -4 9 -5 20
-2 18 -13 83 -19 110 -1 6 -5 16 -9 23 -5 6 -6 12 -3 12 3 0 -2 16 -10 35 -8
19 -11 35 -7 35 5 0 4 4 -2 8 -5 4 -16 23 -24 42 -7 19 -19 51 -27 70 -7 19
-13 31 -14 26 0 -5 -12 14 -27 42 -51 92 -145 203 -249 293 -72 62 -256 169
-290 169 -8 0 -14 4 -14 9 0 4 -60 23 -132 41 l-133 33 -1200 1 c-660 1 -1227
-2 -1260 -6z"/>
<path d="M21605 16234 c-227 -41 -438 -151 -595 -313 -69 -71 -110 -118 -110
-126 0 -3 -8 -13 -18 -23 -11 -11 -25 -33 -33 -50 -8 -18 -17 -32 -21 -32 -5
0 -8 -7 -8 -15 0 -8 -4 -15 -10 -15 -5 0 -9 -3 -8 -7 1 -5 -8 -30 -20 -57 -12
-27 -22 -50 -22 -52 0 -1 -5 -15 -12 -31 -11 -28 -15 -39 -22 -70 -3 -10 -5
-18 -6 -18 -2 0 -10 -36 -15 -70 -3 -16 -8 -48 -12 -70 -10 -53 -10 -11554 0
-11623 14 -99 39 -193 74 -272 32 -75 77 -160 85 -160 4 0 8 -5 8 -10 0 -22
77 -120 156 -197 150 -146 301 -230 522 -291 l97 -27 1230 -2 c677 -1 1253 2
1280 7 80 14 97 17 145 29 73 19 227 80 253 102 14 10 28 19 31 19 32 0 306
240 306 269 0 6 5 11 10 11 6 0 10 6 10 14 0 8 3 16 8 18 11 5 52 66 52 77 0
6 8 15 18 20 9 6 13 11 8 11 -4 0 -1 11 8 25 9 14 13 25 9 25 -5 0 -3 4 3 8
14 9 45 88 37 96 -3 3 2 8 11 12 9 3 14 9 11 13 -2 4 3 30 11 56 8 27 19 79
26 115 13 74 19 11630 6 11630 -4 0 -5 6 -2 13 2 7 -2 41 -10 75 -8 34 -12 62
-9 62 3 0 0 6 -6 14 -6 8 -13 28 -14 45 -1 17 -6 31 -11 31 -5 0 -7 3 -3 6 3
3 -6 27 -19 54 -13 26 -24 52 -24 58 0 5 -7 15 -15 22 -8 7 -13 16 -10 20 3 4
-4 19 -15 33 -11 14 -20 28 -20 31 0 4 -4 12 -10 19 -5 7 -36 46 -68 87 -62
80 -148 162 -222 213 -25 17 -47 34 -50 37 -17 22 -248 120 -318 135 -12 3
-32 7 -44 10 -13 3 -47 9 -77 15 -34 6 -497 10 -1265 9 -1001 -1 -1225 -3
-1291 -15z"/>
<path d="M1557 11814 c-1 -1 -38 -4 -82 -8 -44 -3 -98 -10 -120 -16 -22 -6
-48 -12 -58 -15 -92 -22 -251 -98 -350 -169 -67 -48 -207 -180 -207 -196 0 -5
-6 -13 -13 -17 -8 -4 -27 -28 -43 -53 -16 -25 -31 -47 -34 -50 -19 -18 -120
-241 -122 -270 0 -3 -4 -14 -8 -25 -4 -11 -10 -36 -13 -55 -3 -19 -9 -46 -14
-60 -10 -32 -16 -7173 -6 -7167 5 3 8 -14 7 -36 0 -39 11 -102 23 -137 3 -8 8
-24 10 -35 2 -11 6 -27 10 -35 3 -8 7 -22 9 -30 2 -8 7 -23 12 -35 49 -104 80
-162 94 -179 10 -11 18 -24 18 -29 0 -4 6 -14 13 -21 6 -7 21 -26 32 -42 41
-59 185 -192 266 -246 103 -69 216 -120 324 -147 158 -40 140 -40 1420 -38
677 2 1241 6 1255 10 14 4 34 9 45 11 96 19 228 66 305 109 130 72 277 196
355 302 17 22 32 42 35 45 19 19 89 151 117 219 20 51 53 159 62 206 1 3 1 6
2 8 2 6 9 78 13 132 2 33 5 60 6 60 1 0 3 10 4 22 2 13 -1 23 -5 23 -8 0 -5
62 5 78 3 6 2 13 -3 16 -9 6 -8 57 3 74 3 6 3 13 -2 16 -10 6 -9 67 2 84 4 7
3 12 -2 12 -12 0 -10 93 3 102 7 5 6 11 -1 15 -12 9 -13 72 -1 91 5 6 4 12 -1
12 -10 0 -9 30 2 48 4 6 3 12 -2 12 -10 0 -8 72 2 89 4 5 3 12 -2 15 -10 6 -9
67 2 84 4 7 4 12 -1 12 -12 0 -10 114 2 122 7 5 7 8 0 8 -12 0 -13 40 -1 58 4
7 3 12 -2 12 -11 0 -9 60 2 78 3 6 2 13 -3 16 -9 6 -8 57 3 74 3 6 3 13 -2 16
-10 6 -9 67 2 84 4 7 3 12 -2 12 -5 0 -9 7 -9 15 0 8 5 15 11 15 7 0 7 3 1 8
-14 10 -15 75 -1 84 7 5 7 8 1 8 -12 0 -13 40 -1 58 4 7 3 12 -2 12 -8 0 -10
45 -2 75 1 6 1 12 0 15 -8 18 -5 60 4 60 7 0 7 3 1 8 -14 10 -15 75 -1 84 7 5
7 8 1 8 -12 0 -13 40 -1 58 4 7 3 12 -2 12 -8 0 -10 45 -2 75 1 6 1 12 0 15
-8 18 -5 60 4 60 7 0 7 3 1 8 -14 10 -15 75 -1 84 7 5 7 8 1 8 -12 0 -13 40
-1 58 4 7 3 12 -2 12 -8 0 -10 45 -2 75 1 6 1 12 0 15 -8 18 -5 60 4 60 7 0 7
3 1 8 -14 10 -15 75 -1 84 7 5 7 8 1 8 -12 0 -13 40 -1 58 4 7 3 12 -2 12 -8
0 -10 45 -2 75 1 6 1 12 0 15 -8 18 -5 60 4 60 7 0 7 3 1 8 -14 10 -15 75 -1
84 7 5 7 8 1 8 -12 0 -13 40 -1 58 4 7 3 12 -2 12 -8 0 -10 45 -2 75 1 6 1 12
0 15 -8 18 -5 60 4 60 7 0 7 3 1 8 -14 10 -15 75 -1 84 7 5 7 8 1 8 -12 0 -13
40 -1 58 4 7 3 12 -2 12 -8 0 -10 45 -2 75 1 6 1 12 0 15 -8 18 -5 60 4 60 7
0 7 3 1 8 -14 10 -15 75 -1 84 7 5 7 8 1 8 -12 0 -13 40 -1 58 4 7 3 12 -2 12
-8 0 -10 45 -2 75 1 6 1 12 0 15 -8 18 -5 60 4 60 7 0 7 3 1 8 -14 10 -15 75
-1 84 7 5 7 8 1 8 -12 0 -13 40 -1 58 4 7 3 12 -2 12 -8 0 -10 45 -2 75 1 6 1
12 0 15 -8 18 -5 60 4 60 7 0 7 3 1 8 -14 10 -15 75 -1 84 7 5 7 8 1 8 -12 0
-13 40 -1 58 4 7 3 12 -2 12 -8 0 -10 45 -2 75 1 6 1 12 0 15 -8 18 -5 60 4
60 7 0 7 3 1 8 -14 10 -15 75 -1 84 7 5 7 8 1 8 -12 0 -13 40 -1 58 4 7 3 12
-2 12 -8 0 -10 45 -2 75 1 6 1 12 0 15 -8 18 -5 60 4 60 7 0 7 3 1 8 -14 10
-15 75 -1 84 7 5 7 8 1 8 -12 0 -13 40 -1 58 4 7 3 12 -2 12 -8 0 -10 45 -2
75 1 6 1 12 0 15 -8 18 -5 60 4 60 7 0 7 3 1 8 -14 10 -15 75 -1 84 7 5 7 8 1
8 -12 0 -13 40 -1 58 4 7 3 12 -2 12 -8 0 -10 45 -2 75 1 6 1 12 0 15 -8 18
-5 60 4 60 7 0 7 3 1 8 -14 10 -15 75 -1 84 7 5 7 8 1 8 -12 0 -13 40 -1 58 4
7 3 12 -2 12 -8 0 -10 45 -2 75 1 6 1 12 0 15 -8 18 -5 60 4 60 7 0 7 3 1 8
-14 10 -15 75 -1 84 7 5 7 8 1 8 -12 0 -13 40 -1 58 4 7 3 12 -2 12 -8 0 -10
45 -2 75 1 6 1 12 0 15 -8 18 -5 60 4 60 7 0 7 3 1 8 -14 10 -15 75 -1 84 7 5
7 8 1 8 -12 0 -13 40 -1 58 4 7 3 12 -2 12 -8 0 -10 45 -2 75 1 6 1 12 0 15
-8 18 -5 60 4 60 7 0 7 3 1 8 -14 10 -15 75 -1 84 7 5 7 8 1 8 -12 0 -13 40
-1 58 4 7 3 12 -2 12 -11 0 -9 60 2 78 3 6 2 13 -3 16 -9 6 -8 57 3 74 3 6 3
13 -2 16 -10 6 -9 67 2 84 4 7 4 12 -1 12 -12 0 -10 114 2 122 7 5 7 8 0 8
-12 0 -13 40 -1 58 4 7 3 12 -2 12 -8 0 -10 45 -2 75 1 6 1 12 0 15 -8 18 -5
60 4 60 7 0 8 3 1 8 -6 4 -12 25 -12 47 -2 45 -10 130 -13 130 -1 0 -3 7 -5
15 -21 96 -31 132 -48 173 -9 20 -13 37 -9 37 4 0 3 4 -3 8 -5 4 -23 34 -39
67 -16 33 -40 75 -53 93 -13 17 -22 32 -19 32 2 0 -6 12 -19 28 -13 15 -42 49
-65 76 -148 174 -387 315 -604 357 -28 5 -64 12 -81 16 -24 5 -2392 12 -2398
7z"/>
</g>
</svg>
