<svg class="main-svg" xmlns="http://www.w3.org/2000/svg" xmlns:xlink="http://www.w3.org/1999/xlink" width="1400" height="500" style="" viewBox="0 0 1400 500"><rect x="0" y="0" width="1400" height="500" style="fill: rgb(255, 255, 255); fill-opacity: 1;"/><defs id="defs-c58ce9"><g class="clips"><clipPath id="clipc58ce9xyplot" class="plotclip"><rect width="558" height="320"/></clipPath><clipPath id="clipc58ce9x2y2plot" class="plotclip"><rect width="558" height="320"/></clipPath><clipPath class="axesclip" id="clipc58ce9x"><rect x="80" y="0" width="558" height="500"/></clipPath><clipPath class="axesclip" id="clipc58ce9y"><rect x="0" y="100" width="1400" height="320"/></clipPath><clipPath class="axesclip" id="clipc58ce9xy"><rect x="80" y="100" width="558" height="320"/></clipPath><clipPath class="axesclip" id="clipc58ce9y2"><rect x="0" y="100" width="1400" height="320"/></clipPath><clipPath class="axesclip" id="clipc58ce9xy2"><rect x="80" y="100" width="558" height="320"/></clipPath><clipPath class="axesclip" id="clipc58ce9x2"><rect x="762" y="0" width="558" height="500"/></clipPath><clipPath class="axesclip" id="clipc58ce9x2y"><rect x="762" y="100" width="558" height="320"/></clipPath><clipPath class="axesclip" id="clipc58ce9x2y2"><rect x="762" y="100" width="558" height="320"/></clipPath></g><g class="gradients"/><g class="patterns"/></defs><g class="bglayer"/><g class="layer-below"><g class="imagelayer"/><g class="shapelayer"/></g><g class="cartesianlayer"><g class="subplot xy"><g class="layer-subplot"><g class="shapelayer"/><g class="imagelayer"/></g><g class="minor-gridlayer"><g class="x"/><g class="y"/></g><g class="gridlayer"><g class="x"/><g class="y"/></g><g class="zerolinelayer"/><path class="xlines-below"/><path class="ylines-below"/><g class="overlines-below"/><g class="xaxislayer-below"/><g class="yaxislayer-below"/><g class="overaxes-below"/><g class="plot" transform="translate(80,100)" clip-path="url(#clipc58ce9xyplot)"><g class="scatterlayer mlayer"><g class="trace scatter trace260c9c" style="stroke-miterlimit: 2; opacity: 1;"><g class="fills"/><g class="errorbars"/><g class="lines"><path class="js-line" d="M0,16L3.67,61.56L7.34,93.17L14.68,129.77L18.36,141.66L22.03,187.75L25.7,218.3L29.37,186.1L33.04,161.2L36.71,97.96L40.38,122.23L44.05,133.54L47.72,135.37L51.39,141.97L55.07,117.79L58.74,140.32L62.41,139.92L66.08,149.16L69.75,148.08L77.09,164.6L80.76,165.98L84.43,175.22L88.11,166.33L95.45,156.18L99.12,166.31L102.79,162.68L106.46,175.74L110.13,191.28L113.8,216.82L117.47,228.96L121.14,236.16L124.82,219.96L128.49,212.58L132.16,222.26L135.83,236.53L139.5,240.92L143.17,256.42L146.84,247.54L150.51,250.24L157.86,249.95L161.53,247.79L165.2,252.46L168.87,255.27L172.54,259.64L176.21,261.69L179.88,269.67L183.55,271.98L187.22,264.99L190.89,264.82L194.57,263.96L198.24,261.28L201.91,275.71L205.58,279.04L209.25,271.22L212.92,273.95L216.59,259.48L220.26,258.09L223.93,241.68L227.61,238.72L231.28,246.12L234.95,257.07L242.29,250.7L245.96,254.13L249.63,245.78L253.3,244.92L260.64,240.01L264.32,242.78L267.99,237.92L271.66,218.75L275.33,218.51L279,220.09L282.67,229.58L286.34,247.06L290.01,241.7L293.68,246.78L297.36,238.78L301.03,238.8L304.7,232.48L308.37,234.39L312.04,236.87L315.71,245.77L319.38,244.1L323.05,234.19L326.72,236.8L330.39,235.47L337.74,238.36L341.41,228.87L345.08,231.87L348.75,229.94L359.76,247.42L363.43,245.5L367.11,249.65L370.78,255.06L374.45,252.02L378.12,257.93L381.79,264.25L385.46,267.55L389.13,261.07L392.8,262.71L396.47,260.47L400.14,267.36L407.49,245.67L411.16,242.46L414.83,243.91L418.5,235.66L422.17,242.96L425.84,240.72L429.51,240.34L433.18,237.22L436.86,242.66L440.53,241.28L444.2,237.41L447.87,243.4L451.54,244.02L455.21,242.23L458.88,242.94L462.55,246.99L466.22,251.11L469.89,249.49L473.57,248.93L477.24,244.91L480.91,240.03L484.58,245.31L488.25,248.77L491.92,250.36L495.59,252.01L499.26,255.18L502.93,257.13L506.61,264.48L510.28,264.61L513.95,267.24L517.62,269.84L521.29,273.87L524.96,275.23L528.63,278.19L532.3,276.85L535.97,277.4L539.64,279.92L543.32,291.57L550.66,295.33L554.33,302.1L558,304" style="vector-effect: none; fill: none; stroke: rgb(31, 119, 180); stroke-opacity: 1; stroke-width: 2px; opacity: 1;"/></g><g class="points"/><g class="text"/></g></g></g><g class="overplot"/><path class="xlines-above crisp" d="M79,420.5H638" style="fill: none; stroke-width: 1px; stroke: rgb(36, 36, 36); stroke-opacity: 1;"/><path class="ylines-above crisp" d="M79.5,100V420" style="fill: none; stroke-width: 1px; stroke: rgb(36, 36, 36); stroke-opacity: 1;"/><g class="overlines-above"/><g class="xaxislayer-above"><path class="xtick ticks crisp" d="M0,421v5" transform="translate(80,0)" style="stroke: rgb(68, 68, 68); stroke-opacity: 1; stroke-width: 1px;"/><path class="xtick ticks crisp" d="M0,421v5" transform="translate(153.42000000000002,0)" style="stroke: rgb(68, 68, 68); stroke-opacity: 1; stroke-width: 1px;"/><path class="xtick ticks crisp" d="M0,421v5" transform="translate(226.84,0)" style="stroke: rgb(68, 68, 68); stroke-opacity: 1; stroke-width: 1px;"/><path class="xtick ticks crisp" d="M0,421v5" transform="translate(300.26,0)" style="stroke: rgb(68, 68, 68); stroke-opacity: 1; stroke-width: 1px;"/><path class="xtick ticks crisp" d="M0,421v5" transform="translate(373.68,0)" style="stroke: rgb(68, 68, 68); stroke-opacity: 1; stroke-width: 1px;"/><path class="xtick ticks crisp" d="M0,421v5" transform="translate(447.11,0)" style="stroke: rgb(68, 68, 68); stroke-opacity: 1; stroke-width: 1px;"/><path class="xtick ticks crisp" d="M0,421v5" transform="translate(520.53,0)" style="stroke: rgb(68, 68, 68); stroke-opacity: 1; stroke-width: 1px;"/><path class="xtick ticks crisp" d="M0,421v5" transform="translate(593.95,0)" style="stroke: rgb(68, 68, 68); stroke-opacity: 1; stroke-width: 1px;"/><g class="xtick"><text text-anchor="middle" x="0" y="440.4" transform="translate(80,0)" style="font-family: 'Open Sans', verdana, arial, sans-serif; font-size: 12px; fill: rgb(36, 36, 36); fill-opacity: 1; white-space: pre; opacity: 1;">20</text></g><g class="xtick"><text text-anchor="middle" x="0" y="440.4" style="font-family: 'Open Sans', verdana, arial, sans-serif; font-size: 12px; fill: rgb(36, 36, 36); fill-opacity: 1; white-space: pre; opacity: 1;" transform="translate(153.42000000000002,0)">40</text></g><g class="xtick"><text text-anchor="middle" x="0" y="440.4" style="font-family: 'Open Sans', verdana, arial, sans-serif; font-size: 12px; fill: rgb(36, 36, 36); fill-opacity: 1; white-space: pre; opacity: 1;" transform="translate(226.84,0)">60</text></g><g class="xtick"><text text-anchor="middle" x="0" y="440.4" style="font-family: 'Open Sans', verdana, arial, sans-serif; font-size: 12px; fill: rgb(36, 36, 36); fill-opacity: 1; white-space: pre; opacity: 1;" transform="translate(300.26,0)">80</text></g><g class="xtick"><text text-anchor="middle" x="0" y="440.4" style="font-family: 'Open Sans', verdana, arial, sans-serif; font-size: 12px; fill: rgb(36, 36, 36); fill-opacity: 1; white-space: pre; opacity: 1;" transform="translate(373.68,0)">100</text></g><g class="xtick"><text text-anchor="middle" x="0" y="440.4" style="font-family: 'Open Sans', verdana, arial, sans-serif; font-size: 12px; fill: rgb(36, 36, 36); fill-opacity: 1; white-space: pre; opacity: 1;" transform="translate(447.11,0)">120</text></g><g class="xtick"><text text-anchor="middle" x="0" y="440.4" style="font-family: 'Open Sans', verdana, arial, sans-serif; font-size: 12px; fill: rgb(36, 36, 36); fill-opacity: 1; white-space: pre; opacity: 1;" transform="translate(520.53,0)">140</text></g><g class="xtick"><text text-anchor="middle" x="0" y="440.4" style="font-family: 'Open Sans', verdana, arial, sans-serif; font-size: 12px; fill: rgb(36, 36, 36); fill-opacity: 1; white-space: pre; opacity: 1;" transform="translate(593.95,0)">160</text></g></g><g class="yaxislayer-above"><path class="ytick ticks crisp" d="M79,0h-5" transform="translate(0,373.5)" style="stroke: rgb(68, 68, 68); stroke-opacity: 1; stroke-width: 1px;"/><path class="ytick ticks crisp" d="M79,0h-5" transform="translate(0,318.8)" style="stroke: rgb(68, 68, 68); stroke-opacity: 1; stroke-width: 1px;"/><path class="ytick ticks crisp" d="M79,0h-5" transform="translate(0,264.1)" style="stroke: rgb(68, 68, 68); stroke-opacity: 1; stroke-width: 1px;"/><path class="ytick ticks crisp" d="M79,0h-5" transform="translate(0,209.39)" style="stroke: rgb(68, 68, 68); stroke-opacity: 1; stroke-width: 1px;"/><path class="ytick ticks crisp" d="M79,0h-5" transform="translate(0,154.69)" style="stroke: rgb(68, 68, 68); stroke-opacity: 1; stroke-width: 1px;"/><path class="ytick ticks crisp" d="M79,0h-5" transform="translate(0,99.99)" style="stroke: rgb(68, 68, 68); stroke-opacity: 1; stroke-width: 1px;"/><g class="ytick"><text text-anchor="end" x="71.6" y="4.199999999999999" transform="translate(0,373.5)" style="font-family: 'Open Sans', verdana, arial, sans-serif; font-size: 12px; fill: rgb(36, 36, 36); fill-opacity: 1; white-space: pre; opacity: 1;">215</text></g><g class="ytick"><text text-anchor="end" x="71.6" y="4.199999999999999" style="font-family: 'Open Sans', verdana, arial, sans-serif; font-size: 12px; fill: rgb(36, 36, 36); fill-opacity: 1; white-space: pre; opacity: 1;" transform="translate(0,318.8)">220</text></g><g class="ytick"><text text-anchor="end" x="71.6" y="4.199999999999999" style="font-family: 'Open Sans', verdana, arial, sans-serif; font-size: 12px; fill: rgb(36, 36, 36); fill-opacity: 1; white-space: pre; opacity: 1;" transform="translate(0,264.1)">225</text></g><g class="ytick"><text text-anchor="end" x="71.6" y="4.199999999999999" style="font-family: 'Open Sans', verdana, arial, sans-serif; font-size: 12px; fill: rgb(36, 36, 36); fill-opacity: 1; white-space: pre; opacity: 1;" transform="translate(0,209.39)">230</text></g><g class="ytick"><text text-anchor="end" x="71.6" y="4.199999999999999" style="font-family: 'Open Sans', verdana, arial, sans-serif; font-size: 12px; fill: rgb(36, 36, 36); fill-opacity: 1; white-space: pre; opacity: 1;" transform="translate(0,154.69)">235</text></g><g class="ytick"><text text-anchor="end" x="71.6" y="4.199999999999999" style="font-family: 'Open Sans', verdana, arial, sans-serif; font-size: 12px; fill: rgb(36, 36, 36); fill-opacity: 1; white-space: pre; opacity: 1;" transform="translate(0,99.99)">240</text></g></g><g class="overaxes-above"/></g><g class="subplot x2y2"><g class="layer-subplot"><g class="shapelayer"/><g class="imagelayer"/></g><g class="minor-gridlayer"><g class="x2"/><g class="y2"/></g><g class="gridlayer"><g class="x2"/><g class="y2"/></g><g class="zerolinelayer"/><path class="xlines-below"/><path class="ylines-below"/><g class="overlines-below"/><g class="xaxislayer-below"/><g class="yaxislayer-below"/><g class="overaxes-below"/><g class="plot" transform="translate(762,100)" clip-path="url(#clipc58ce9x2y2plot)"><g class="scatterlayer mlayer"><g class="trace scatter traceee334c" style="stroke-miterlimit: 2; opacity: 1;"><g class="fills"/><g class="errorbars"/><g class="lines"><path class="js-line" d="M0,24.56L3.67,47.3L7.34,59.5L11.01,69.09L14.68,68.72L18.36,86.41L22.03,126.47L25.7,151.07L29.37,144.22L33.04,138.37L36.71,91.24L40.38,106.13L44.05,101.82L47.72,99.7L51.39,94.35L55.07,91.79L58.74,107.88L62.41,105.13L66.08,100.11L69.75,101.01L73.42,125.29L77.09,118.03L80.76,109.03L84.43,109.49L88.11,96.04L91.78,88.1L95.45,62.2L99.12,54.92L102.79,67.22L106.46,92.34L110.13,144.64L113.8,156.95L117.47,162.28L121.14,169.9L124.82,151.68L128.49,160.45L132.16,156.83L135.83,172.71L139.5,172.28L143.17,191.09L146.84,176.81L150.51,175.23L154.18,175.75L157.86,172.38L161.53,179.01L168.87,199.2L172.54,200.26L176.21,209.65L179.88,213.26L183.55,200.76L187.22,167.05L190.89,155.62L194.57,147.94L198.24,161.26L201.91,191.77L205.58,187.01L209.25,158.86L212.92,159.1L216.59,119.67L220.26,128.19L223.93,99.07L227.61,94.86L231.28,106.47L234.95,126.41L238.62,116.43L242.29,107.07L245.96,107.23L249.63,91.04L253.3,79.24L256.97,71.36L260.64,75.39L264.32,80.24L267.99,73.03L271.66,41.95L275.33,19.65L279,16L282.67,40.9L286.34,70.23L290.01,81.74L297.36,103.93L301.03,108.42L304.7,84.36L308.37,70.08L312.04,79.07L315.71,102.68L319.38,93.37L323.05,86.98L326.72,93.93L330.39,94.81L334.07,102.6L337.74,100.42L341.41,88.61L345.08,128.79L348.75,125.05L352.42,135.38L356.09,132.3L359.76,112.2L363.43,117.77L367.11,117.86L370.78,146.41L374.45,139.59L378.12,167L381.79,178.24L385.46,182.25L389.13,148.54L392.8,155.43L396.47,170.65L400.14,184.22L403.82,158.15L407.49,129.46L411.16,118.43L414.83,142.13L418.5,115.3L422.17,137.81L425.84,119L429.51,104.29L433.18,85.32L436.86,103.45L440.53,90.7L444.2,68.07L447.87,90.76L451.54,78.56L455.21,58.39L458.88,51.64L462.55,78.07L466.22,85L469.89,85.55L473.57,68.1L477.24,83.99L480.91,94.92L484.58,117.8L488.25,124.22L491.92,150.1L495.59,136.52L499.26,151.94L502.93,160.03L506.61,189.02L510.28,175.03L513.95,186.1L517.62,204.19L521.29,202.23L524.96,205.06L528.63,218.51L532.3,212.86L535.97,204.18L539.64,203.62L543.32,242.04L546.99,248.75L550.66,266.98L554.33,304L558,297.61" style="vector-effect: none; fill: none; stroke: rgb(255, 127, 14); stroke-opacity: 1; stroke-width: 2px; opacity: 1;"/></g><g class="points"/><g class="text"/></g></g></g><g class="overplot"/><path class="xlines-above crisp" d="M761,420.5H1320" style="fill: none; stroke-width: 1px; stroke: rgb(36, 36, 36); stroke-opacity: 1;"/><path class="ylines-above crisp" d="M761.5,100V420" style="fill: none; stroke-width: 1px; stroke: rgb(36, 36, 36); stroke-opacity: 1;"/><g class="overlines-above"/><g class="xaxislayer-above"><path class="x2tick ticks crisp" d="M0,421v5" transform="translate(762,0)" style="stroke: rgb(68, 68, 68); stroke-opacity: 1; stroke-width: 1px;"/><path class="x2tick ticks crisp" d="M0,421v5" transform="translate(835.42,0)" style="stroke: rgb(68, 68, 68); stroke-opacity: 1; stroke-width: 1px;"/><path class="x2tick ticks crisp" d="M0,421v5" transform="translate(908.84,0)" style="stroke: rgb(68, 68, 68); stroke-opacity: 1; stroke-width: 1px;"/><path class="x2tick ticks crisp" d="M0,421v5" transform="translate(982.26,0)" style="stroke: rgb(68, 68, 68); stroke-opacity: 1; stroke-width: 1px;"/><path class="x2tick ticks crisp" d="M0,421v5" transform="translate(1055.68,0)" style="stroke: rgb(68, 68, 68); stroke-opacity: 1; stroke-width: 1px;"/><path class="x2tick ticks crisp" d="M0,421v5" transform="translate(1129.1100000000001,0)" style="stroke: rgb(68, 68, 68); stroke-opacity: 1; stroke-width: 1px;"/><path class="x2tick ticks crisp" d="M0,421v5" transform="translate(1202.53,0)" style="stroke: rgb(68, 68, 68); stroke-opacity: 1; stroke-width: 1px;"/><path class="x2tick ticks crisp" d="M0,421v5" transform="translate(1275.95,0)" style="stroke: rgb(68, 68, 68); stroke-opacity: 1; stroke-width: 1px;"/><g class="x2tick"><text text-anchor="middle" x="0" y="440.4" transform="translate(762,0)" style="font-family: 'Open Sans', verdana, arial, sans-serif; font-size: 12px; fill: rgb(36, 36, 36); fill-opacity: 1; white-space: pre; opacity: 1;">20</text></g><g class="x2tick"><text text-anchor="middle" x="0" y="440.4" style="font-family: 'Open Sans', verdana, arial, sans-serif; font-size: 12px; fill: rgb(36, 36, 36); fill-opacity: 1; white-space: pre; opacity: 1;" transform="translate(835.42,0)">40</text></g><g class="x2tick"><text text-anchor="middle" x="0" y="440.4" style="font-family: 'Open Sans', verdana, arial, sans-serif; font-size: 12px; fill: rgb(36, 36, 36); fill-opacity: 1; white-space: pre; opacity: 1;" transform="translate(908.84,0)">60</text></g><g class="x2tick"><text text-anchor="middle" x="0" y="440.4" style="font-family: 'Open Sans', verdana, arial, sans-serif; font-size: 12px; fill: rgb(36, 36, 36); fill-opacity: 1; white-space: pre; opacity: 1;" transform="translate(982.26,0)">80</text></g><g class="x2tick"><text text-anchor="middle" x="0" y="440.4" style="font-family: 'Open Sans', verdana, arial, sans-serif; font-size: 12px; fill: rgb(36, 36, 36); fill-opacity: 1; white-space: pre; opacity: 1;" transform="translate(1055.68,0)">100</text></g><g class="x2tick"><text text-anchor="middle" x="0" y="440.4" style="font-family: 'Open Sans', verdana, arial, sans-serif; font-size: 12px; fill: rgb(36, 36, 36); fill-opacity: 1; white-space: pre; opacity: 1;" transform="translate(1129.1100000000001,0)">120</text></g><g class="x2tick"><text text-anchor="middle" x="0" y="440.4" style="font-family: 'Open Sans', verdana, arial, sans-serif; font-size: 12px; fill: rgb(36, 36, 36); fill-opacity: 1; white-space: pre; opacity: 1;" transform="translate(1202.53,0)">140</text></g><g class="x2tick"><text text-anchor="middle" x="0" y="440.4" style="font-family: 'Open Sans', verdana, arial, sans-serif; font-size: 12px; fill: rgb(36, 36, 36); fill-opacity: 1; white-space: pre; opacity: 1;" transform="translate(1275.95,0)">160</text></g></g><g class="yaxislayer-above"><path class="y2tick ticks crisp" d="M761,0h-5" transform="translate(0,406.43)" style="stroke: rgb(68, 68, 68); stroke-opacity: 1; stroke-width: 1px;"/><path class="y2tick ticks crisp" d="M761,0h-5" transform="translate(0,365.3)" style="stroke: rgb(68, 68, 68); stroke-opacity: 1; stroke-width: 1px;"/><path class="y2tick ticks crisp" d="M761,0h-5" transform="translate(0,324.16999999999996)" style="stroke: rgb(68, 68, 68); stroke-opacity: 1; stroke-width: 1px;"/><path class="y2tick ticks crisp" d="M761,0h-5" transform="translate(0,283.05)" style="stroke: rgb(68, 68, 68); stroke-opacity: 1; stroke-width: 1px;"/><path class="y2tick ticks crisp" d="M761,0h-5" transform="translate(0,241.92)" style="stroke: rgb(68, 68, 68); stroke-opacity: 1; stroke-width: 1px;"/><path class="y2tick ticks crisp" d="M761,0h-5" transform="translate(0,200.79000000000002)" style="stroke: rgb(68, 68, 68); stroke-opacity: 1; stroke-width: 1px;"/><path class="y2tick ticks crisp" d="M761,0h-5" transform="translate(0,159.66)" style="stroke: rgb(68, 68, 68); stroke-opacity: 1; stroke-width: 1px;"/><path class="y2tick ticks crisp" d="M761,0h-5" transform="translate(0,118.53999999999999)" style="stroke: rgb(68, 68, 68); stroke-opacity: 1; stroke-width: 1px;"/><g class="y2tick"><text text-anchor="end" x="753.6" y="4.199999999999999" transform="translate(0,406.43)" style="font-family: 'Open Sans', verdana, arial, sans-serif; font-size: 12px; fill: rgb(36, 36, 36); fill-opacity: 1; white-space: pre; opacity: 1;">170</text></g><g class="y2tick"><text text-anchor="end" x="753.6" y="4.199999999999999" style="font-family: 'Open Sans', verdana, arial, sans-serif; font-size: 12px; fill: rgb(36, 36, 36); fill-opacity: 1; white-space: pre; opacity: 1;" transform="translate(0,365.3)">180</text></g><g class="y2tick"><text text-anchor="end" x="753.6" y="4.199999999999999" style="font-family: 'Open Sans', verdana, arial, sans-serif; font-size: 12px; fill: rgb(36, 36, 36); fill-opacity: 1; white-space: pre; opacity: 1;" transform="translate(0,324.16999999999996)">190</text></g><g class="y2tick"><text text-anchor="end" x="753.6" y="4.199999999999999" style="font-family: 'Open Sans', verdana, arial, sans-serif; font-size: 12px; fill: rgb(36, 36, 36); fill-opacity: 1; white-space: pre; opacity: 1;" transform="translate(0,283.05)">200</text></g><g class="y2tick"><text text-anchor="end" x="753.6" y="4.199999999999999" style="font-family: 'Open Sans', verdana, arial, sans-serif; font-size: 12px; fill: rgb(36, 36, 36); fill-opacity: 1; white-space: pre; opacity: 1;" transform="translate(0,241.92)">210</text></g><g class="y2tick"><text text-anchor="end" x="753.6" y="4.199999999999999" style="font-family: 'Open Sans', verdana, arial, sans-serif; font-size: 12px; fill: rgb(36, 36, 36); fill-opacity: 1; white-space: pre; opacity: 1;" transform="translate(0,200.79000000000002)">220</text></g><g class="y2tick"><text text-anchor="end" x="753.6" y="4.199999999999999" style="font-family: 'Open Sans', verdana, arial, sans-serif; font-size: 12px; fill: rgb(36, 36, 36); fill-opacity: 1; white-space: pre; opacity: 1;" transform="translate(0,159.66)">230</text></g><g class="y2tick"><text text-anchor="end" x="753.6" y="4.199999999999999" style="font-family: 'Open Sans', verdana, arial, sans-serif; font-size: 12px; fill: rgb(36, 36, 36); fill-opacity: 1; white-space: pre; opacity: 1;" transform="translate(0,118.53999999999999)">240</text></g></g><g class="overaxes-above"/></g></g><g class="polarlayer"/><g class="smithlayer"/><g class="ternarylayer"/><g class="geolayer"/><g class="funnelarealayer"/><g class="pielayer"/><g class="iciclelayer"/><g class="treemaplayer"/><g class="sunburstlayer"/><g class="glimages"/><defs id="topdefs-c58ce9"><g class="clips"/></defs><g class="layer-above"><g class="imagelayer"/><g class="shapelayer"/></g><g class="infolayer"><g class="g-gtitle"><text class="gtitle" x="700" y="50" text-anchor="middle" dy="0em" style="font-family: 'Open Sans', verdana, arial, sans-serif; font-size: 22px; fill: rgb(36, 36, 36); opacity: 1; font-weight: normal; white-space: pre;">nmd#219: The Decline?</text></g><g class="g-xtitle"><text class="xtitle" x="359" y="467.70625" text-anchor="middle" style="font-family: sans-serif; font-size: 14px; fill: rgb(36, 36, 36); opacity: 1; font-weight: normal; white-space: pre;">Game</text></g><g class="g-x2title"><text class="x2title" x="1041" y="467.70625" text-anchor="middle" style="font-family: sans-serif; font-size: 14px; fill: rgb(36, 36, 36); opacity: 1; font-weight: normal; white-space: pre;">Game</text></g><g class="g-ytitle"><text class="ytitle" transform="rotate(-90,24.403125000000003,260)" x="24.403125000000003" y="260" text-anchor="middle" style="font-family: sans-serif; font-size: 14px; fill: rgb(36, 36, 36); opacity: 1; font-weight: normal; white-space: pre;">Career ACS</text></g><g class="g-y2title"><text class="y2title" transform="rotate(-90,706.403125,260)" x="706.403125" y="260" text-anchor="middle" style="font-family: sans-serif; font-size: 14px; fill: rgb(36, 36, 36); opacity: 1; font-weight: normal; white-space: pre;">Rolling ACS</text></g><g class="annotation" data-index="0" style="opacity: 1;"><g class="annotation-text-g" transform="rotate(0,352.4,77.99999999999997)"><g class="cursor-pointer" transform="translate(278,68)"><rect class="bg" x="0.5" y="0.5" width="147" height="19" style="stroke-width: 1px; stroke: rgb(0, 0, 0); stroke-opacity: 0; fill: rgb(0, 0, 0); fill-opacity: 0;"/><text class="annotation-text" text-anchor="middle" x="74.09375" y="15" style="font-family: sans-serif; font-size: 14px; fill: rgb(36, 36, 36); fill-opacity: 1; white-space: pre;">Career ACS Over Time</text></g></g></g><g class="annotation" data-index="1" style="opacity: 1;"><g class="annotation-text-g" transform="rotate(0,1044.8999999999999,77.99999999999997)"><g class="cursor-pointer" transform="translate(974,68)"><rect class="bg" x="0.5" y="0.5" width="140" height="19" style="stroke-width: 1px; stroke: rgb(0, 0, 0); stroke-opacity: 0; fill: rgb(0, 0, 0); fill-opacity: 0;"/><text class="annotation-text" text-anchor="middle" x="70.484375" y="15" style="font-family: sans-serif; font-size: 14px; fill: rgb(36, 36, 36); fill-opacity: 1; white-space: pre;">20 Game Rolling ACS</text></g></g></g></g></svg>